<?xml version="1.0" encoding="UTF-8" standalone="no"?>
<svg viewBox="0 0 640 340" xmlns="http://www.w3.org/2000/svg">
<rect width="640" height="340" fill="white"/>
<text x="320.0" y="24" font-family="DejaVu Sans" font-size="13.5" font-weight="bold" fill="#14365A" text-anchor="middle">Cerca: picos de 55, 35 e 65 - qual pedacinho e falso?</text>
<polyline points="70,150 110,95 150,150 190,115 230,150 270,85 310,150" fill="none" stroke="#14365A" stroke-width="3" stroke-linejoin="round" stroke-linecap="round"/>
<text x="100" y="50" font-family="DejaVu Sans" font-size="13" font-weight="bold" fill="#14365A" text-anchor="middle">55</text>
<text x="160" y="100" font-family="DejaVu Sans" font-size="13" font-weight="bold" fill="#14365A" text-anchor="middle">35</text>
<text x="228" y="45" font-family="DejaVu Sans" font-size="13" font-weight="bold" fill="#14365A" text-anchor="middle">65</text>
<line x1="70" y1="150" x2="310" y2="150" stroke="#CBD5DF" stroke-width="1.5" stroke-dasharray="4,4"/>
<polyline points="70,260 92.0,205 114.0,240" fill="none" stroke="#14365A" stroke-width="3" stroke-linejoin="round" stroke-linecap="round"/>
<text x="92" y="295" font-family="DejaVu Sans" font-size="15" font-weight="bold" fill="#14365A" text-anchor="middle">A</text>
<polyline points="220,260 242.0,195 264.0,260" fill="none" stroke="#14365A" stroke-width="3" stroke-linejoin="round" stroke-linecap="round"/>
<text x="242" y="295" font-family="DejaVu Sans" font-size="15" font-weight="bold" fill="#14365A" text-anchor="middle">B</text>
<polyline points="370,260 392.0,205 414.0,260" fill="none" stroke="#14365A" stroke-width="3" stroke-linejoin="round" stroke-linecap="round"/>
<text x="392" y="295" font-family="DejaVu Sans" font-size="15" font-weight="bold" fill="#14365A" text-anchor="middle">C</text>
<polyline points="520,260 542.0,225 564.0,260" fill="none" stroke="#14365A" stroke-width="3" stroke-linejoin="round" stroke-linecap="round"/>
<text x="542" y="295" font-family="DejaVu Sans" font-size="15" font-weight="bold" fill="#14365A" text-anchor="middle">D</text>
</svg>
