<?xml version="1.0" encoding="UTF-8" standalone="no"?>
<svg viewBox="0 0 600 460" version="1.1" xmlns="http://www.w3.org/2000/svg">
<rect width="600" height="460" fill="white"/>
<text x="300.0" y="32.0" font-family="DejaVu Sans" font-size="18" font-weight="bold" fill="#14365A" text-anchor="middle">As 3 fatias iguais do bloco de Marina</text><polygon points="287.0,232.5 313.0,247.5 313.0,277.5 287.0,262.5" fill="#14365A" stroke="1.3" stroke-width="1.5"/><polygon points="339.0,232.5 313.0,247.5 313.0,277.5 339.0,262.5" fill="#2F80C4" stroke="1.3" stroke-width="1.5"/><polygon points="313.0,217.5 339.0,232.5 313.0,247.5 287.0,232.5" fill="#E6F0FA" stroke="1.3" stroke-width="1.5"/><polygon points="261.0,247.5 287.0,262.5 287.0,292.5 261.0,277.5" fill="#14365A" stroke="1.3" stroke-width="1.5"/><polygon points="313.0,247.5 287.0,262.5 287.0,292.5 313.0,277.5" fill="#7A5CC0" stroke="1.3" stroke-width="1.5"/><polygon points="287.0,232.5 313.0,247.5 287.0,262.5 261.0,247.5" fill="#EEE8FA" stroke="1.3" stroke-width="1.5"/><polygon points="313.0,247.5 339.0,262.5 339.0,292.5 313.0,277.5" fill="#14365A" stroke="1.3" stroke-width="1.5"/><polygon points="365.0,247.5 339.0,262.5 339.0,292.5 365.0,277.5" fill="#2F80C4" stroke="1.3" stroke-width="1.5"/><polygon points="339.0,232.5 365.0,247.5 339.0,262.5 313.0,247.5" fill="#E6F0FA" stroke="1.3" stroke-width="1.5"/><polygon points="235.1,262.5 261.0,277.5 261.0,307.5 235.1,292.5" fill="#14365A" stroke="1.3" stroke-width="1.5"/><polygon points="287.0,262.5 261.0,277.5 261.0,307.5 287.0,292.5" fill="#F6C445" stroke="1.3" stroke-width="1.5"/><polygon points="261.0,247.5 287.0,262.5 261.0,277.5 235.1,262.5" fill="#FCEFC2" stroke="1.3" stroke-width="1.5"/><polygon points="287.0,262.5 313.0,277.5 313.0,307.5 287.0,292.5" fill="#14365A" stroke="1.3" stroke-width="1.5"/><polygon points="339.0,262.5 313.0,277.5 313.0,307.5 339.0,292.5" fill="#7A5CC0" stroke="1.3" stroke-width="1.5"/><polygon points="313.0,247.5 339.0,262.5 313.0,277.5 287.0,262.5" fill="#EEE8FA" stroke="1.3" stroke-width="1.5"/><polygon points="261.0,277.5 287.0,292.5 287.0,322.5 261.0,307.5" fill="#14365A" stroke="1.3" stroke-width="1.5"/><polygon points="313.0,277.5 287.0,292.5 287.0,322.5 313.0,307.5" fill="#F6C445" stroke="1.3" stroke-width="1.5"/><polygon points="287.0,262.5 313.0,277.5 287.0,292.5 261.0,277.5" fill="#FCEFC2" stroke="1.3" stroke-width="1.5"/><polygon points="287.0,202.5 313.0,217.5 313.0,247.5 287.0,232.5" fill="#14365A" stroke="1.3" stroke-width="1.5"/><polygon points="339.0,202.5 313.0,217.5 313.0,247.5 339.0,232.5" fill="#2F80C4" stroke="1.3" stroke-width="1.5"/><polygon points="313.0,187.5 339.0,202.5 313.0,217.5 287.0,202.5" fill="#E6F0FA" stroke="1.3" stroke-width="1.5"/><polygon points="261.0,217.5 287.0,232.5 287.0,262.5 261.0,247.5" fill="#14365A" stroke="1.3" stroke-width="1.5"/><polygon points="313.0,217.5 287.0,232.5 287.0,262.5 313.0,247.5" fill="#7A5CC0" stroke="1.3" stroke-width="1.5"/><polygon points="287.0,202.5 313.0,217.5 287.0,232.5 261.0,217.5" fill="#EEE8FA" stroke="1.3" stroke-width="1.5"/><polygon points="313.0,217.5 339.0,232.5 339.0,262.5 313.0,247.5" fill="#14365A" stroke="1.3" stroke-width="1.5"/><polygon points="365.0,217.5 339.0,232.5 339.0,262.5 365.0,247.5" fill="#2F80C4" stroke="1.3" stroke-width="1.5"/><polygon points="339.0,202.5 365.0,217.5 339.0,232.5 313.0,217.5" fill="#E6F0FA" stroke="1.3" stroke-width="1.5"/><polygon points="235.1,232.5 261.0,247.5 261.0,277.5 235.1,262.5" fill="#14365A" stroke="1.3" stroke-width="1.5"/><polygon points="287.0,232.5 261.0,247.5 261.0,277.5 287.0,262.5" fill="#F6C445" stroke="1.3" stroke-width="1.5"/><polygon points="261.0,217.5 287.0,232.5 261.0,247.5 235.1,232.5" fill="#FCEFC2" stroke="1.3" stroke-width="1.5"/><polygon points="287.0,232.5 313.0,247.5 313.0,277.5 287.0,262.5" fill="#14365A" stroke="1.3" stroke-width="1.5"/><polygon points="339.0,232.5 313.0,247.5 313.0,277.5 339.0,262.5" fill="#7A5CC0" stroke="1.3" stroke-width="1.5"/><polygon points="313.0,217.5 339.0,232.5 313.0,247.5 287.0,232.5" fill="#EEE8FA" stroke="1.3" stroke-width="1.5"/><polygon points="261.0,247.5 287.0,262.5 287.0,292.5 261.0,277.5" fill="#14365A" stroke="1.3" stroke-width="1.5"/><polygon points="313.0,247.5 287.0,262.5 287.0,292.5 313.0,277.5" fill="#F6C445" stroke="1.3" stroke-width="1.5"/><polygon points="287.0,232.5 313.0,247.5 287.0,262.5 261.0,247.5" fill="#FCEFC2" stroke="1.3" stroke-width="1.5"/><polygon points="287.0,172.5 313.0,187.5 313.0,217.5 287.0,202.5" fill="#14365A" stroke="1.3" stroke-width="1.5"/><polygon points="339.0,172.5 313.0,187.5 313.0,217.5 339.0,202.5" fill="#2F80C4" stroke="1.3" stroke-width="1.5"/><polygon points="313.0,157.5 339.0,172.5 313.0,187.5 287.0,172.5" fill="#E6F0FA" stroke="1.3" stroke-width="1.5"/><polygon points="261.0,187.5 287.0,202.5 287.0,232.5 261.0,217.5" fill="#14365A" stroke="1.3" stroke-width="1.5"/><polygon points="313.0,187.5 287.0,202.5 287.0,232.5 313.0,217.5" fill="#7A5CC0" stroke="1.3" stroke-width="1.5"/><polygon points="287.0,172.5 313.0,187.5 287.0,202.5 261.0,187.5" fill="#EEE8FA" stroke="1.3" stroke-width="1.5"/><polygon points="313.0,187.5 339.0,202.5 339.0,232.5 313.0,217.5" fill="#14365A" stroke="1.3" stroke-width="1.5"/><polygon points="365.0,187.5 339.0,202.5 339.0,232.5 365.0,217.5" fill="#2F80C4" stroke="1.3" stroke-width="1.5"/><polygon points="339.0,172.5 365.0,187.5 339.0,202.5 313.0,187.5" fill="#E6F0FA" stroke="1.3" stroke-width="1.5"/><polygon points="235.1,202.5 261.0,217.5 261.0,247.5 235.1,232.5" fill="#14365A" stroke="1.3" stroke-width="1.5"/><polygon points="287.0,202.5 261.0,217.5 261.0,247.5 287.0,232.5" fill="#F6C445" stroke="1.3" stroke-width="1.5"/><polygon points="261.0,187.5 287.0,202.5 261.0,217.5 235.1,202.5" fill="#FCEFC2" stroke="1.3" stroke-width="1.5"/><polygon points="287.0,202.5 313.0,217.5 313.0,247.5 287.0,232.5" fill="#14365A" stroke="1.3" stroke-width="1.5"/><polygon points="339.0,202.5 313.0,217.5 313.0,247.5 339.0,232.5" fill="#7A5CC0" stroke="1.3" stroke-width="1.5"/><polygon points="313.0,187.5 339.0,202.5 313.0,217.5 287.0,202.5" fill="#EEE8FA" stroke="1.3" stroke-width="1.5"/><polygon points="261.0,217.5 287.0,232.5 287.0,262.5 261.0,247.5" fill="#14365A" stroke="1.3" stroke-width="1.5"/><polygon points="313.0,217.5 287.0,232.5 287.0,262.5 313.0,247.5" fill="#F6C445" stroke="1.3" stroke-width="1.5"/><polygon points="287.0,202.5 313.0,217.5 287.0,232.5 261.0,217.5" fill="#FCEFC2" stroke="1.3" stroke-width="1.5"/><polygon points="287.0,142.5 313.0,157.5 313.0,187.5 287.0,172.5" fill="#14365A" stroke="1.3" stroke-width="1.5"/><polygon points="339.0,142.5 313.0,157.5 313.0,187.5 339.0,172.5" fill="#2F80C4" stroke="1.3" stroke-width="1.5"/><polygon points="313.0,127.5 339.0,142.5 313.0,157.5 287.0,142.5" fill="#E6F0FA" stroke="1.3" stroke-width="1.5"/><polygon points="261.0,157.5 287.0,172.5 287.0,202.5 261.0,187.5" fill="#14365A" stroke="1.3" stroke-width="1.5"/><polygon points="313.0,157.5 287.0,172.5 287.0,202.5 313.0,187.5" fill="#7A5CC0" stroke="1.3" stroke-width="1.5"/><polygon points="287.0,142.5 313.0,157.5 287.0,172.5 261.0,157.5" fill="#EEE8FA" stroke="1.3" stroke-width="1.5"/><polygon points="313.0,157.5 339.0,172.5 339.0,202.5 313.0,187.5" fill="#14365A" stroke="1.3" stroke-width="1.5"/><polygon points="365.0,157.5 339.0,172.5 339.0,202.5 365.0,187.5" fill="#2F80C4" stroke="1.3" stroke-width="1.5"/><polygon points="339.0,142.5 365.0,157.5 339.0,172.5 313.0,157.5" fill="#E6F0FA" stroke="1.3" stroke-width="1.5"/><polygon points="235.1,172.5 261.0,187.5 261.0,217.5 235.1,202.5" fill="#14365A" stroke="1.3" stroke-width="1.5"/><polygon points="287.0,172.5 261.0,187.5 261.0,217.5 287.0,202.5" fill="#F6C445" stroke="1.3" stroke-width="1.5"/><polygon points="261.0,157.5 287.0,172.5 261.0,187.5 235.1,172.5" fill="#FCEFC2" stroke="1.3" stroke-width="1.5"/><polygon points="287.0,172.5 313.0,187.5 313.0,217.5 287.0,202.5" fill="#14365A" stroke="1.3" stroke-width="1.5"/><polygon points="339.0,172.5 313.0,187.5 313.0,217.5 339.0,202.5" fill="#7A5CC0" stroke="1.3" stroke-width="1.5"/><polygon points="313.0,157.5 339.0,172.5 313.0,187.5 287.0,172.5" fill="#EEE8FA" stroke="1.3" stroke-width="1.5"/><polygon points="261.0,187.5 287.0,202.5 287.0,232.5 261.0,217.5" fill="#14365A" stroke="1.3" stroke-width="1.5"/><polygon points="313.0,187.5 287.0,202.5 287.0,232.5 313.0,217.5" fill="#F6C445" stroke="1.3" stroke-width="1.5"/><polygon points="287.0,172.5 313.0,187.5 287.0,202.5 261.0,187.5" fill="#FCEFC2" stroke="1.3" stroke-width="1.5"/><text x="300.0" y="380.0" font-family="DejaVu Sans" font-size="13" font-weight="normal" fill="#8A97A6" text-anchor="middle">cada fatia tem largura 2 x profundidade 1 x altura 4</text><rect x="150.0" y="395.0" width="300.0" height="52.0" rx="10" fill="#FCEFC2" stroke="#F6C445" stroke-width="2.2"/><text x="300.0" y="417.0" font-family="DejaVu Sans Mono" font-size="15" font-weight="bold" fill="#8a6d1a" text-anchor="middle">24 ÷ 3 = 8 cubinhos em cada pedaço</text><text x="300.0" y="439.0" font-family="DejaVu Sans Mono" font-size="12" font-weight="normal" fill="#8a6d1a" text-anchor="middle">3 x 8 = 24 (confere com o total)</text>
</svg>
