<?xml version="1.0" encoding="UTF-8" standalone="no"?>
<svg viewBox="0 0 400 260" xmlns="http://www.w3.org/2000/svg" xmlns:inkscape="http://www.inkscape.org/namespaces/inkscape" inkscape:export-filename="pos_total_resultado.png" inkscape:export-xdpi="192" inkscape:export-ydpi="192">
<rect width="400" height="260" fill="white"/>
<text x="200" y="20" font-family="DejaVu Sans" font-size="13" font-weight="bold" fill="#14365A" text-anchor="middle">A mesa tem 14 lugares ao todo</text>
<circle cx="200" cy="130" r="95" fill="none" stroke="#CBD5DF" stroke-width="2"/>
<line x1="274.3" y1="71.7" x2="125.7" y2="188.3" stroke="#3E9B6B" stroke-width="2.4" stroke-dasharray="6,4"/>
<g font-family="DejaVu Sans" font-size="11" font-weight="bold" fill="#14365A" text-anchor="middle">
<circle cx="200" cy="35" r="15" fill="#E6F0FA" stroke="#2F80C4" stroke-width="1.8"/><text x="200" y="39">1</text>
<circle cx="241.2" cy="44.4" r="15" fill="#E6F0FA" stroke="#2F80C4" stroke-width="1.8"/><text x="241.2" y="48.4">2</text>
<circle cx="274.3" cy="71.7" r="15" fill="#E2F2EA" stroke="#3E9B6B" stroke-width="2.2"/><text x="274.3" y="75.7">3</text>
<circle cx="292.6" cy="109.1" r="15" fill="#E6F0FA" stroke="#2F80C4" stroke-width="1.8"/><text x="292.6" y="113.1">4</text>
<circle cx="292.6" cy="150.9" r="15" fill="#E6F0FA" stroke="#2F80C4" stroke-width="1.8"/><text x="292.6" y="154.9">5</text>
<circle cx="274.3" cy="188.3" r="15" fill="#E6F0FA" stroke="#2F80C4" stroke-width="1.8"/><text x="274.3" y="192.3">6</text>
<circle cx="241.2" cy="215.6" r="15" fill="#E6F0FA" stroke="#2F80C4" stroke-width="1.8"/><text x="241.2" y="219.6">7</text>
<circle cx="200" cy="225" r="15" fill="#E6F0FA" stroke="#2F80C4" stroke-width="1.8"/><text x="200" y="229">8</text>
<circle cx="158.8" cy="215.6" r="15" fill="#E6F0FA" stroke="#2F80C4" stroke-width="1.8"/><text x="158.8" y="219.6">9</text>
<circle cx="125.7" cy="188.3" r="15" fill="#E2F2EA" stroke="#3E9B6B" stroke-width="2.2"/><text x="125.7" y="192.3">10</text>
<circle cx="107.4" cy="150.9" r="15" fill="#E6F0FA" stroke="#2F80C4" stroke-width="1.8"/><text x="107.4" y="154.9">11</text>
<circle cx="107.4" cy="109.1" r="15" fill="#E6F0FA" stroke="#2F80C4" stroke-width="1.8"/><text x="107.4" y="113.1">12</text>
<circle cx="125.7" cy="71.7" r="15" fill="#E6F0FA" stroke="#2F80C4" stroke-width="1.8"/><text x="125.7" y="75.7">13</text>
<circle cx="158.8" cy="44.4" r="15" fill="#E6F0FA" stroke="#2F80C4" stroke-width="1.8"/><text x="158.8" y="48.4">14</text>
</g>
<text x="200" y="250" font-family="DejaVu Sans" font-size="12" font-weight="bold" fill="#3E9B6B" text-anchor="middle">10 − 3 = 7, e 7 × 2 = 14</text>
</svg>
