<svg viewBox="0 0 680 260" xmlns="http://www.w3.org/2000/svg"><rect width="680" height="260" fill="white"/><text x="340" y="28" font-family="DejaVu Sans" font-size="17" font-weight="bold" fill="#14365A" text-anchor="middle">Fita métrica de um alfaiate</text><text x="340" y="52" font-family="DejaVu Sans" font-size="12.5" font-weight="normal" fill="#8A97A6" text-anchor="middle">comprimento de 14 cm, marquinha a cada 1 centímetro</text><line x1="70" y1="90" x2="70" y2="102" stroke="#E0701B" stroke-width="2.2"/><line x1="630" y1="90" x2="630" y2="102" stroke="#E0701B" stroke-width="2.2"/><line x1="70" y1="96" x2="630" y2="96" stroke="#E0701B" stroke-width="2.2"/><rect x="230.0" y="66" width="240" height="22" rx="6" fill="white" stroke="#E0701B" stroke-width="1.6"/><text x="350.0" y="82" font-family="DejaVu Sans" font-size="12.5" font-weight="bold" fill="#c2410c" text-anchor="middle">quantas marquinhas ao todo?</text><rect x="70" y="150" width="560" height="36" rx="5" fill="#E6F0FA" stroke="#14365A" stroke-width="2.2"/><line x1="70" y1="150" x2="70" y2="186" stroke="#14365A" stroke-width="1.8"/><text x="70" y="204" font-family="DejaVu Sans Mono" font-size="10.5" font-weight="bold" fill="#374151" text-anchor="middle">0</text><line x1="110" y1="150" x2="110" y2="186" stroke="#14365A" stroke-width="1.8"/><text x="110" y="204" font-family="DejaVu Sans Mono" font-size="10.5" font-weight="bold" fill="#374151" text-anchor="middle">1</text><line x1="150" y1="150" x2="150" y2="186" stroke="#14365A" stroke-width="1.8"/><text x="150" y="204" font-family="DejaVu Sans Mono" font-size="10.5" font-weight="bold" fill="#374151" text-anchor="middle">2</text><line x1="190" y1="150" x2="190" y2="186" stroke="#14365A" stroke-width="1.8"/><text x="190" y="204" font-family="DejaVu Sans Mono" font-size="10.5" font-weight="bold" fill="#374151" text-anchor="middle">3</text><line x1="230" y1="150" x2="230" y2="186" stroke="#14365A" stroke-width="1.8"/><text x="230" y="204" font-family="DejaVu Sans Mono" font-size="10.5" font-weight="bold" fill="#374151" text-anchor="middle">4</text><line x1="270" y1="150" x2="270" y2="186" stroke="#14365A" stroke-width="1.8"/><text x="270" y="204" font-family="DejaVu Sans Mono" font-size="10.5" font-weight="bold" fill="#374151" text-anchor="middle">5</text><line x1="310" y1="150" x2="310" y2="186" stroke="#14365A" stroke-width="1.8"/><text x="310" y="204" font-family="DejaVu Sans Mono" font-size="10.5" font-weight="bold" fill="#374151" text-anchor="middle">6</text><line x1="350" y1="150" x2="350" y2="186" stroke="#14365A" stroke-width="1.8"/><text x="350" y="204" font-family="DejaVu Sans Mono" font-size="10.5" font-weight="bold" fill="#374151" text-anchor="middle">7</text><line x1="390" y1="150" x2="390" y2="186" stroke="#14365A" stroke-width="1.8"/><text x="390" y="204" font-family="DejaVu Sans Mono" font-size="10.5" font-weight="bold" fill="#374151" text-anchor="middle">8</text><line x1="430" y1="150" x2="430" y2="186" stroke="#14365A" stroke-width="1.8"/><text x="430" y="204" font-family="DejaVu Sans Mono" font-size="10.5" font-weight="bold" fill="#374151" text-anchor="middle">9</text><line x1="470" y1="150" x2="470" y2="186" stroke="#14365A" stroke-width="1.8"/><text x="470" y="204" font-family="DejaVu Sans Mono" font-size="10.5" font-weight="bold" fill="#374151" text-anchor="middle">10</text><line x1="510" y1="150" x2="510" y2="186" stroke="#14365A" stroke-width="1.8"/><text x="510" y="204" font-family="DejaVu Sans Mono" font-size="10.5" font-weight="bold" fill="#374151" text-anchor="middle">11</text><line x1="550" y1="150" x2="550" y2="186" stroke="#14365A" stroke-width="1.8"/><text x="550" y="204" font-family="DejaVu Sans Mono" font-size="10.5" font-weight="bold" fill="#374151" text-anchor="middle">12</text><line x1="590" y1="150" x2="590" y2="186" stroke="#14365A" stroke-width="1.8"/><text x="590" y="204" font-family="DejaVu Sans Mono" font-size="10.5" font-weight="bold" fill="#374151" text-anchor="middle">13</text><line x1="630" y1="150" x2="630" y2="186" stroke="#14365A" stroke-width="1.8"/><text x="630" y="204" font-family="DejaVu Sans Mono" font-size="10.5" font-weight="bold" fill="#374151" text-anchor="middle">14</text><text x="340" y="226" font-family="DejaVu Sans" font-size="11.5" font-weight="normal" fill="#8A97A6" text-anchor="middle">marcas da fita métrica, em centímetros</text></svg>