<?xml version="1.0" encoding="UTF-8" standalone="no"?>
<svg viewBox="0 0 720 340" xmlns="http://www.w3.org/2000/svg"><rect width="720" height="340" fill="white"/><text x="360.0" y="30.0" font-family="DejaVu Sans" font-size="16" font-weight="bold" fill="#14365A" text-anchor="middle">O molde plano vira um cubo quando dobramos nas linhas entre os quadrados</text><rect x="114.0" y="70.0" width="54.0" height="54.0" rx="6" fill="#E6F0FA" stroke="#14365A" stroke-width="2.2"/><rect x="60.0" y="124.0" width="54.0" height="54.0" rx="6" fill="#FCEBD9" stroke="#14365A" stroke-width="2.2"/><rect x="114.0" y="124.0" width="54.0" height="54.0" rx="6" fill="#FCEFC2" stroke="#14365A" stroke-width="2.2"/><rect x="168.0" y="124.0" width="54.0" height="54.0" rx="6" fill="#E2F2EA" stroke="#14365A" stroke-width="2.2"/><rect x="114.0" y="178.0" width="54.0" height="54.0" rx="6" fill="#EEE8FA" stroke="#14365A" stroke-width="2.2"/><rect x="114.0" y="232.0" width="54.0" height="54.0" rx="6" fill="#EEF3F8" stroke="#14365A" stroke-width="2.2"/><text x="141.0" y="312.0" font-family="DejaVu Sans" font-size="13" font-weight="normal" fill="#8A97A6" text-anchor="middle">molde plano (planificação)</text><line x1="300.0" y1="190.0" x2="391.0" y2="190.0" stroke="#E0701B" stroke-width="3"/><polygon points="400.0,190.0 391.0,185.0 391.0,195.0" fill="#E0701B"/><text x="350.0" y="172.0" font-family="DejaVu Sans" font-size="12" font-weight="bold" fill="#E0701B" text-anchor="middle">dobra</text><polygon points="492.5,144.0 560.0,183.0 560.0,261.0 492.5,222.0" fill="#FCEFC2" stroke="#14365A" stroke-width="1.6"/><polygon points="627.5,144.0 560.0,183.0 560.0,261.0 627.5,222.0" fill="#FCEBD9" stroke="#14365A" stroke-width="1.6"/><polygon points="560.0,105.0 627.5,144.0 560.0,183.0 492.5,144.0" fill="#E6F0FA" stroke="#14365A" stroke-width="1.6"/><text x="560.0" y="295.0" font-family="DejaVu Sans" font-size="13" font-weight="normal" fill="#8A97A6" text-anchor="middle">cubo montado</text></svg>
