<?xml version="1.0" encoding="UTF-8" standalone="no"?>
<svg viewBox="0 0 900 681" xmlns="http://www.w3.org/2000/svg"><rect width="900" height="681" fill="white"/><text x="450.0" y="28.0" font-family="DejaVu Sans" font-size="15" font-weight="bold" fill="#14365A" text-anchor="middle">O molde abaixo, com um desenho em cada face, vai virar este cubo. Qual desenho fica na face com "?"?</text><rect x="421.0" y="45.0" width="58.0" height="58.0" rx="6" fill="white" stroke="#14365A" stroke-width="2.2"/><path d="M 450.0,87.0 C 427.4,67.9 440.4,54.0 450.0,67.9 C 459.6,54.0 472.6,67.9 450.0,87.0 Z" fill="#14365A"/><rect x="421.0" y="103.0" width="58.0" height="58.0" rx="6" fill="white" stroke="#14365A" stroke-width="2.2"/><circle cx="450.0" cy="132.0" r="10.4" fill="#14365A"/><line x1="463.1" y1="132.0" x2="470.0" y2="132.0" stroke="#14365A" stroke-width="2.4" stroke-linecap="round"/><line x1="459.2" y1="141.2" x2="464.1" y2="146.1" stroke="#14365A" stroke-width="2.4" stroke-linecap="round"/><line x1="450.0" y1="145.1" x2="450.0" y2="152.0" stroke="#14365A" stroke-width="2.4" stroke-linecap="round"/><line x1="440.8" y1="141.2" x2="435.9" y2="146.1" stroke="#14365A" stroke-width="2.4" stroke-linecap="round"/><line x1="436.9" y1="132.0" x2="430.0" y2="132.0" stroke="#14365A" stroke-width="2.4" stroke-linecap="round"/><line x1="440.8" y1="122.8" x2="435.9" y2="117.9" stroke="#14365A" stroke-width="2.4" stroke-linecap="round"/><line x1="450.0" y1="119.0" x2="450.0" y2="112.0" stroke="#14365A" stroke-width="2.4" stroke-linecap="round"/><line x1="459.2" y1="122.8" x2="464.1" y2="117.9" stroke="#14365A" stroke-width="2.4" stroke-linecap="round"/><rect x="363.0" y="161.0" width="58.0" height="58.0" rx="6" fill="white" stroke="#14365A" stroke-width="2.2"/><circle cx="392.0" cy="190.0" r="17.4" fill="#14365A"/><circle cx="401.6" cy="187.4" r="14.3" fill="#F5F7FA"/><rect x="421.0" y="161.0" width="58.0" height="58.0" rx="6" fill="white" stroke="#14365A" stroke-width="2.2"/><circle cx="450.0" cy="190.0" r="17.4" fill="#14365A"/><rect x="479.0" y="161.0" width="58.0" height="58.0" rx="6" fill="white" stroke="#14365A" stroke-width="2.2"/><polygon points="508.0,172.6 512.3,184.1 524.5,184.6 515.0,192.3 518.2,204.1 508.0,197.3 497.8,204.1 501.0,192.3 491.5,184.6 503.7,184.1" fill="#14365A" stroke="none"/><rect x="421.0" y="219.0" width="58.0" height="58.0" rx="6" fill="white" stroke="#14365A" stroke-width="2.2"/><polygon points="450.0,230.6 433.5,261.9 466.5,261.9" fill="#14365A" stroke="none"/><text x="450.0" y="299.0" font-family="DejaVu Sans" font-size="12.5" font-weight="normal" fill="#8A97A6" text-anchor="middle">molde dado (planificação)</text><polygon points="379.0,388.0 450.0,429.0 450.0,511.0 379.0,470.0" fill="#EEF3F8" stroke="#14365A" stroke-width="1.6"/><polygon points="521.0,388.0 450.0,429.0 450.0,511.0 521.0,470.0" fill="#EEF3F8" stroke="#14365A" stroke-width="1.6"/><polygon points="450.0,347.0 521.0,388.0 450.0,429.0 379.0,388.0" fill="#EEF3F8" stroke="#14365A" stroke-width="1.6"/><circle cx="414.5" cy="449.5" r="7.9" fill="#14365A"/><line x1="424.3" y1="449.5" x2="429.6" y2="449.5" stroke="#14365A" stroke-width="2.4" stroke-linecap="round"/><line x1="421.5" y1="456.5" x2="425.2" y2="460.2" stroke="#14365A" stroke-width="2.4" stroke-linecap="round"/><line x1="414.5" y1="459.3" x2="414.5" y2="464.6" stroke="#14365A" stroke-width="2.4" stroke-linecap="round"/><line x1="407.5" y1="456.5" x2="403.8" y2="460.2" stroke="#14365A" stroke-width="2.4" stroke-linecap="round"/><line x1="404.7" y1="449.5" x2="399.4" y2="449.5" stroke="#14365A" stroke-width="2.4" stroke-linecap="round"/><line x1="407.5" y1="442.5" x2="403.8" y2="438.8" stroke="#14365A" stroke-width="2.4" stroke-linecap="round"/><line x1="414.5" y1="439.7" x2="414.5" y2="434.4" stroke="#14365A" stroke-width="2.4" stroke-linecap="round"/><line x1="421.5" y1="442.5" x2="425.2" y2="438.8" stroke="#14365A" stroke-width="2.4" stroke-linecap="round"/><path d="M 450.0,397.8 C 432.9,383.4 442.8,372.9 450.0,383.4 C 457.2,372.9 467.1,383.4 450.0,397.8 Z" fill="#14365A"/><text x="491.0" y="447.2" font-family="DejaVu Sans" font-size="30" font-weight="bold" fill="#E0701B" text-anchor="middle">?</text><rect x="766.0" y="567.0" width="68.0" height="68.0" rx="10" fill="white" stroke="#CBD5DF" stroke-width="2"/><circle cx="800.0" cy="601.0" r="20.0" fill="#14365A"/><circle cx="811.0" cy="598.0" r="16.4" fill="#F5F7FA"/><text x="800.0" y="653.0" font-family="DejaVu Sans" font-size="15" font-weight="bold" fill="#14365A" text-anchor="middle">E</text><rect x="246.0" y="567.0" width="68.0" height="68.0" rx="10" fill="white" stroke="#CBD5DF" stroke-width="2"/><polygon points="280.0,581.0 284.9,594.2 299.0,594.8 288.0,603.6 291.8,617.2 280.0,609.4 268.2,617.2 272.0,603.6 261.0,594.8 275.1,594.2" fill="#14365A" stroke="none"/><text x="280.0" y="653.0" font-family="DejaVu Sans" font-size="15" font-weight="bold" fill="#14365A" text-anchor="middle">B</text><rect x="66.0" y="567.0" width="68.0" height="68.0" rx="10" fill="white" stroke="#CBD5DF" stroke-width="2"/><path d="M 100.0,616.0 C 74.0,594.0 89.0,578.0 100.0,594.0 C 111.0,578.0 126.0,594.0 100.0,616.0 Z" fill="#14365A"/><text x="100.0" y="653.0" font-family="DejaVu Sans" font-size="15" font-weight="bold" fill="#14365A" text-anchor="middle">A</text><rect x="606.0" y="567.0" width="68.0" height="68.0" rx="10" fill="white" stroke="#CBD5DF" stroke-width="2"/><circle cx="640.0" cy="601.0" r="20.0" fill="#14365A"/><text x="640.0" y="653.0" font-family="DejaVu Sans" font-size="15" font-weight="bold" fill="#14365A" text-anchor="middle">D</text><rect x="426.0" y="567.0" width="68.0" height="68.0" rx="10" fill="white" stroke="#CBD5DF" stroke-width="2"/><polygon points="460.0,581.0 441.0,617.0 479.0,617.0" fill="#14365A" stroke="none"/><text x="460.0" y="653.0" font-family="DejaVu Sans" font-size="15" font-weight="bold" fill="#14365A" text-anchor="middle">C</text></svg>
