<svg viewBox="0 0 500 130" xmlns="http://www.w3.org/2000/svg" xmlns:inkscape="http://www.inkscape.org/namespaces/inkscape" inkscape:export-filename="cerca_9secoes_resultado.png" inkscape:export-xdpi="153.6" inkscape:export-ydpi="153.6"><rect width="500" height="130" fill="#FFFFFF"/><rect x="20.0" y="40" width="8" height="60" rx="2" fill="#E2F2EA" stroke="#3E9B6B" stroke-width="2.2"/><rect x="58.0" y="40" width="8" height="60" rx="2" fill="#E2F2EA" stroke="#3E9B6B" stroke-width="2.2"/><rect x="96.0" y="40" width="8" height="60" rx="2" fill="#E2F2EA" stroke="#3E9B6B" stroke-width="2.2"/><rect x="134.0" y="40" width="8" height="60" rx="2" fill="#E2F2EA" stroke="#3E9B6B" stroke-width="2.2"/><rect x="172.0" y="40" width="8" height="60" rx="2" fill="#E2F2EA" stroke="#3E9B6B" stroke-width="2.2"/><rect x="210.0" y="40" width="8" height="60" rx="2" fill="#E2F2EA" stroke="#3E9B6B" stroke-width="2.2"/><rect x="248.0" y="40" width="8" height="60" rx="2" fill="#E2F2EA" stroke="#3E9B6B" stroke-width="2.2"/><rect x="286.0" y="40" width="8" height="60" rx="2" fill="#E2F2EA" stroke="#3E9B6B" stroke-width="2.2"/><rect x="324.0" y="40" width="8" height="60" rx="2" fill="#E2F2EA" stroke="#3E9B6B" stroke-width="2.2"/><rect x="362.0" y="40" width="8" height="60" rx="2" fill="#E2F2EA" stroke="#3E9B6B" stroke-width="2.2"/><rect x="28.0" y="50" width="30.0" height="8" rx="2" fill="#E2F2EA" stroke="#3E9B6B" stroke-width="1.8"/><rect x="28.0" y="82" width="30.0" height="8" rx="2" fill="#E2F2EA" stroke="#3E9B6B" stroke-width="1.8"/><rect x="66.0" y="50" width="30.0" height="8" rx="2" fill="#E2F2EA" stroke="#3E9B6B" stroke-width="1.8"/><rect x="66.0" y="82" width="30.0" height="8" rx="2" fill="#E2F2EA" stroke="#3E9B6B" stroke-width="1.8"/><rect x="104.0" y="50" width="30.0" height="8" rx="2" fill="#E2F2EA" stroke="#3E9B6B" stroke-width="1.8"/><rect x="104.0" y="82" width="30.0" height="8" rx="2" fill="#E2F2EA" stroke="#3E9B6B" stroke-width="1.8"/><rect x="142.0" y="50" width="30.0" height="8" rx="2" fill="#E2F2EA" stroke="#3E9B6B" stroke-width="1.8"/><rect x="142.0" y="82" width="30.0" height="8" rx="2" fill="#E2F2EA" stroke="#3E9B6B" stroke-width="1.8"/><rect x="180.0" y="50" width="30.0" height="8" rx="2" fill="#E2F2EA" stroke="#3E9B6B" stroke-width="1.8"/><rect x="180.0" y="82" width="30.0" height="8" rx="2" fill="#E2F2EA" stroke="#3E9B6B" stroke-width="1.8"/><rect x="218.0" y="50" width="30.0" height="8" rx="2" fill="#E2F2EA" stroke="#3E9B6B" stroke-width="1.8"/><rect x="218.0" y="82" width="30.0" height="8" rx="2" fill="#E2F2EA" stroke="#3E9B6B" stroke-width="1.8"/><rect x="256.0" y="50" width="30.0" height="8" rx="2" fill="#E2F2EA" stroke="#3E9B6B" stroke-width="1.8"/><rect x="256.0" y="82" width="30.0" height="8" rx="2" fill="#E2F2EA" stroke="#3E9B6B" stroke-width="1.8"/><rect x="294.0" y="50" width="30.0" height="8" rx="2" fill="#E2F2EA" stroke="#3E9B6B" stroke-width="1.8"/><rect x="294.0" y="82" width="30.0" height="8" rx="2" fill="#E2F2EA" stroke="#3E9B6B" stroke-width="1.8"/><rect x="332.0" y="50" width="30.0" height="8" rx="2" fill="#E2F2EA" stroke="#3E9B6B" stroke-width="1.8"/><rect x="332.0" y="82" width="30.0" height="8" rx="2" fill="#E2F2EA" stroke="#3E9B6B" stroke-width="1.8"/><text x="250.0" y="116" font-family="DejaVu Sans" font-size="14" font-weight="bold" fill="#14365A" text-anchor="middle">9 seções = 28 peças</text></svg>