<svg viewBox="0 0 560 220" xmlns="http://www.w3.org/2000/svg"><rect width="560" height="220" fill="#FFFFFF"/><rect x="40.0" y="110" width="70" height="60" rx="18" fill="#E2F2EA" stroke="#3E9B6B" stroke-width="2.4"/><rect x="40.0" y="78" width="16" height="44" rx="7" fill="#E2F2EA" stroke="#3E9B6B" stroke-width="2"/><rect x="54.0" y="114" width="16" height="16" rx="7" fill="#E2F2EA" stroke="#3E9B6B" stroke-width="2"/><rect x="68.0" y="114" width="16" height="16" rx="7" fill="#E2F2EA" stroke="#3E9B6B" stroke-width="2"/><rect x="82.0" y="114" width="16" height="16" rx="7" fill="#E2F2EA" stroke="#3E9B6B" stroke-width="2"/><rect x="94.0" y="114" width="16" height="16" rx="7" fill="#E2F2EA" stroke="#3E9B6B" stroke-width="2"/><text x="93.33333333333333" y="200" font-family="DejaVu Sans" font-size="14" font-weight="bold" fill="#14365A" text-anchor="middle">1 dedos</text><rect x="226.66666666666666" y="110" width="70" height="60" rx="18" fill="#E2F2EA" stroke="#3E9B6B" stroke-width="2.4"/><rect x="226.66666666666666" y="78" width="16" height="44" rx="7" fill="#E2F2EA" stroke="#3E9B6B" stroke-width="2"/><rect x="240.66666666666666" y="62" width="16" height="60" rx="7" fill="#E2F2EA" stroke="#3E9B6B" stroke-width="2"/><rect x="254.66666666666663" y="58" width="16" height="64" rx="7" fill="#E2F2EA" stroke="#3E9B6B" stroke-width="2"/><rect x="268.66666666666663" y="114" width="16" height="16" rx="7" fill="#E2F2EA" stroke="#3E9B6B" stroke-width="2"/><rect x="280.66666666666663" y="114" width="16" height="16" rx="7" fill="#E2F2EA" stroke="#3E9B6B" stroke-width="2"/><text x="280.0" y="200" font-family="DejaVu Sans" font-size="14" font-weight="bold" fill="#14365A" text-anchor="middle">3 dedos</text><rect x="413.3333333333333" y="110" width="70" height="60" rx="18" fill="#E2F2EA" stroke="#3E9B6B" stroke-width="2.4"/><rect x="413.3333333333333" y="78" width="16" height="44" rx="7" fill="#E2F2EA" stroke="#3E9B6B" stroke-width="2"/><rect x="427.3333333333333" y="62" width="16" height="60" rx="7" fill="#E2F2EA" stroke="#3E9B6B" stroke-width="2"/><rect x="441.3333333333333" y="58" width="16" height="64" rx="7" fill="#E2F2EA" stroke="#3E9B6B" stroke-width="2"/><rect x="455.3333333333333" y="64" width="16" height="58" rx="7" fill="#E2F2EA" stroke="#3E9B6B" stroke-width="2"/><rect x="467.3333333333333" y="78" width="16" height="44" rx="7" fill="#E2F2EA" stroke="#3E9B6B" stroke-width="2"/><text x="466.66666666666663" y="200" font-family="DejaVu Sans" font-size="14" font-weight="bold" fill="#14365A" text-anchor="middle">5 dedos</text></svg>